<?xml version="1.0" encoding="utf-8"?>
<!-- Generator: Adobe Illustrator 25.4.1, SVG Export Plug-In . SVG Version: 6.00 Build 0)  -->
<svg version="1.1" id="cmyk" xmlns="http://www.w3.org/2000/svg" xmlns:xlink="http://www.w3.org/1999/xlink" x="0px" y="0px"
	 viewBox="0 0 322.35 124.18" style="enable-background:new 0 0 322.35 124.18;" xml:space="preserve">
<style type="text/css">
	.st0{fill:#FFFFFF;}
	.st1{fill:#DD3526;}
</style>
<g>
	<path class="st0" d="M217.67,101.41l-5.74,0c-0.59,0-1.08,0.48-1.08,1.08l0,16.15h6.82c4.75,0,8.61-3.86,8.61-8.61
		C226.28,105.27,222.42,101.41,217.67,101.41z M215.16,114.33v-8.61h2.51c2.37,0,4.18,1.93,4.18,4.31c0,2.37-1.8,4.31-4.18,4.31
		H215.16z"/>
	<path class="st0" d="M260.61,101.41c-0.47,0-0.87,0.3-1.01,0.72l-3.65,9.69l-3.65-9.69c-0.15-0.42-0.55-0.72-1.01-0.72l-5.02,0
		v17.23h4.31v-10.05l3.95,9.92h2.87l3.95-9.92v10.05h4.31v-17.23L260.61,101.41z"/>
	<polygon class="st0" points="296.86,118.63 301.52,118.63 301.52,110.02 301.52,101.41 296.86,101.41 	"/>
	<path class="st0" d="M267.79,101.41v16.15c0,0.59,0.48,1.08,1.08,1.08h11.13v-4.31h-7.9v-2.87h6.46v-3.59h-6.46v-2.15h7.9v-4.31
		L267.79,101.41z"/>
	<path class="st0" d="M281.42,101.41v3.23c0,0.59,0.48,1.08,1.08,1.08h3.59v12.92h4.67v-12.92h4.67v-4.31H281.42z"/>
	<path class="st0" d="M236.2,101.19c-4.8,0-8.7,3.95-8.7,8.83c0,4.88,3.89,8.83,8.7,8.83s8.7-3.95,8.7-8.83
		C244.9,105.14,241.01,101.19,236.2,101.19z M236.2,114.46c-2.37,0-4.31-1.99-4.31-4.44c0-2.45,1.93-4.44,4.31-4.44
		c2.37,0,4.31,1.99,4.31,4.44C240.51,112.47,238.58,114.46,236.2,114.46z"/>
	<path class="st0" d="M193.81,103.38c-0.42,0.42-0.42,1.1,0,1.52l5.12,5.12l-5.88,5.88l3.05,3.04c0.42,0.42,1.1,0.42,1.52,0
		l8.93-8.93l-9.69-9.69L193.81,103.38z"/>
	<path class="st0" d="M194.02,109.26l-8.93-8.93l-9.69,9.69l3.05,3.05c0.42,0.42,1.1,0.42,1.52,0l5.12-5.12l5.88,5.88l3.04-3.05
		C194.44,110.36,194.44,109.68,194.02,109.26z"/>
	<path class="st0" d="M311.57,105.58c1.3,0,2.47,0.6,3.26,1.54l3.11-3.11c-1.59-1.73-3.85-2.82-6.37-2.82c-4.8,0-8.7,3.95-8.7,8.83
		c0,4.88,3.89,8.83,8.7,8.83c2.52,0,4.78-1.09,6.37-2.82l-3.11-3.11c-0.79,0.94-1.96,1.54-3.26,1.54c-2.37,0-4.31-1.99-4.31-4.44
		C307.27,107.57,309.2,105.58,311.57,105.58z"/>
</g>
<polygon class="st1" points="4.41,5.75 4.41,5.95 4.41,86.09 4.41,87.12 39.89,87.12 45.63,81.38 51.37,87.12 86.52,87.12 
	86.52,86.09 86.52,5.95 86.52,5.75 "/>
<g id="South_Africa_1_">
	<g id="Mark_1_">
		<path class="st0" d="M17.07,64.05c5.2-1.65,7.98-3.62,8.41-6.24c-0.06-2.12-1.08-3.26-3.66-4.92c-2.54-1.71-3.52-3.72-2.94-6.03
			c0.73-2.64,3.3-4.35,7.69-5.13c3.97-0.77,10.75,0.52,21.77,0.42c5.2,0.1,11.72-3.9,13.02-7.99c-1.38,2.42-6.02,5.67-12.52,5.77
			l-36.98-0.39c0.51,1.65,2.31,2.26,5.43,1.81c1.25-0.22,2.1-0.43,2.49-0.23c0.35,0.18,0.32,0.73-0.28,1.12
			c-3.77,3.5-3.82,8.95,0.95,11.79c1.81,1.06,3.57,2.52,3.48,3.82C23.78,59.9,21.43,61.4,17.07,64.05"/>
		<path class="st0" d="M27.96,48.87c4.76,1.58,12.78,1.52,21.45,1.31c0.51,0.44-1.23,1.62-2.61,1.64
			C38.43,52.09,32.15,51.11,27.96,48.87"/>
		<path class="st0" d="M27.67,54.38c-0.55-0.4-1.32,0.59-0.95,1.24c2.79,2.67,5.4,4.38,7.84,5.12
			C32.25,59.23,29.95,57.11,27.67,54.38"/>
		<path class="st0" d="M28.72,52.72c3.68,2.18,7.64,3.59,11.87,4.25c0.74,0.02,2.72-1.23,2.43-1.92
			C38.6,54.79,33.83,54.02,28.72,52.72"/>
		<path class="st0" d="M53.34,47.98c-5.88,7.27-20.69,15.63-25.33,23.58c7.38-7.84,21.1-14.39,26.52-21.15
			C55.55,48.7,53.92,47.16,53.34,47.98"/>
		<path class="st0" d="M33.89,69.74c7.74-4.95,14.08-8.43,17.28-11.14c0.37-0.42,1.62-0.46,3.77-0.1
			C52.16,61.6,44.05,65.31,33.89,69.74"/>
		<path class="st0" d="M48.79,57.37l2.68-2.84c1.46,0.38,4.44,0.1,6.81-1.08c2.94-1.5,4.52-4.15,5.42-9.34
			C65.25,33.89,70,30.75,78.04,30.59c-6.8,0.86-11.25,3.87-12.84,13.72c-0.77,4.9-1.65,8.46-5.16,11.25
			C57.24,57.38,53.7,57.56,48.79,57.37"/>
		<path class="st0" d="M51.7,23.76c7.56-0.02,12.56,0.71,15.52,1.97c0.92,0.76,0.66,1.79-0.49,1.63
			C64.47,26.16,59.2,25.04,51.7,23.76"/>
		<path class="st0" d="M55.58,21.19c0.98,0.06,1.95,0.14,2.92,0.26c0.9,0.13,1.8,0.28,2.68,0.45c0.78,0.15,1.56,0.31,2.32,0.5
			c0.77,0.19,1.53,0.39,2.28,0.62c4.52,0.91,8.82,3.2,13.11,5.21c0.29,0,0.57-0.57,0.57-0.86c-4.01-3.15-8.59-4.87-13.41-5.67
			c-0.79-0.17-1.59-0.3-2.4-0.41c-0.8-0.1-1.61-0.17-2.42-0.21c-0.92-0.05-1.86-0.06-2.81-0.03C57.49,21.05,56.53,21.1,55.58,21.19"
			/>
	</g>
</g>
<g>
	<g>
		<g>
			<path class="st0" d="M128.22,7.39V12c0,1.01-0.34,1.63-1.63,1.63h-16.98v6.58h14.62c1.29,0,1.63,0.62,1.63,1.63v4.44
				c0,1.01-0.34,1.63-1.63,1.63h-14.62v13.16c0,1.46-0.34,1.69-1.63,1.69h-5.57c-1.29,0-1.63-0.62-1.63-1.63V7.39
				c0-1.01,0.34-1.63,1.63-1.63h24.18C127.89,5.76,128.22,6.38,128.22,7.39z"/>
			<path class="st0" d="M164.1,42.76h-6.63c-1.35,0-2.02-0.51-2.81-1.69l-6.07-9.05c-0.51-0.67-0.62-1.29-0.62-2.87v-4.5
				c0-1.01,0.34-1.63,1.63-1.63h1.12c2.76,0,5.34-1.91,5.34-4.55c0-2.92-2.25-4.78-5.17-4.78h-7.48v27.44
				c0,1.29-0.62,1.63-1.63,1.63h-5.57c-1.01,0-1.57-0.34-1.57-1.63V7.45c0-1.01,0.28-1.63,1.57-1.63h14.17
				c6.13,0,8.83,1.24,11.19,3.6c2.08,2.02,3.26,5.23,3.26,8.83c0,5.9-4.33,10.01-7.82,11.19l7.93,11.53
				C165.45,41.75,165.17,42.76,164.1,42.76z"/>
			<path class="st0" d="M201.15,30.9c0,8.89-8.43,12.71-15.13,12.71c-6.69,0-15.01-3.82-15.01-12.71V17.63
				c0-8.88,8.32-12.71,15.01-12.71c6.69,0,15.13,3.82,15.13,12.71V30.9z M192.32,18.41c0-3.6-2.59-5.68-6.3-5.68
				c-3.65,0-6.24,2.08-6.24,5.68v11.7c0,3.6,2.59,5.68,6.24,5.68c3.71,0,6.3-2.08,6.3-5.68V18.41z"/>
			<path class="st0" d="M238.37,7.39v33.74c0,1.01-0.34,1.63-1.63,1.63h-5.12c-1.41,0-1.8-0.79-2.53-1.91l-11.92-19.29v19.57
				c0,1.29-0.62,1.63-1.63,1.63h-5.57c-1.01,0-1.63-0.34-1.63-1.63V7.39c0-1.01,0.34-1.63,1.63-1.63h5.29c1.41,0,1.8,0.79,2.53,1.91
				l11.92,19.23V7.39c0-1.29,0.62-1.63,1.63-1.63h5.4C237.76,5.76,238.37,6.1,238.37,7.39z"/>
			<path class="st0" d="M273.35,7.39v4.67c0,1.01-0.34,1.63-1.63,1.63h-8.6v27.44c0,1.29-0.62,1.63-1.63,1.63h-5.57
				c-1.01,0-1.63-0.34-1.63-1.63V13.69h-8.66c-1.29,0-1.63-0.62-1.63-1.63V7.39c0-1.01,0.34-1.63,1.63-1.63h26.09
				C273.01,5.76,273.35,6.38,273.35,7.39z"/>
			<path class="st0" d="M130.25,87.06h-6.64c-1.35,0-2.02-0.51-2.81-1.69l-6.07-9.05c-0.51-0.68-0.62-1.29-0.62-2.87v-4.5
				c0-1.01,0.34-1.63,1.63-1.63h1.12c2.76,0,5.34-1.91,5.34-4.55c0-2.92-2.25-4.78-5.17-4.78h-7.48v27.44
				c0,1.29-0.62,1.63-1.63,1.63h-5.57c-1.01,0-1.57-0.34-1.57-1.63V51.74c0-1.01,0.28-1.63,1.57-1.63h14.17
				c6.13,0,8.83,1.24,11.19,3.6c2.08,2.02,3.26,5.23,3.26,8.83c0,5.9-4.33,10.01-7.82,11.19l7.93,11.53
				C131.6,86.05,131.32,87.06,130.25,87.06z"/>
			<path class="st0" d="M167.53,51.69v24.07c0,8.83-8.21,12.15-14.9,12.15c-6.69,0-14.85-3.32-14.85-12.15V51.69
				c0-1.29,0.62-1.63,1.63-1.63h5.57c1.01,0,1.63,0.34,1.63,1.63v22.83c0,3.54,2.31,5.57,6.02,5.57c3.71,0,6.07-2.02,6.07-5.57
				V51.69c0-1.29,0.62-1.63,1.63-1.63h5.57C166.91,50.06,167.53,50.4,167.53,51.69z"/>
			<path class="st0" d="M205.43,51.69v33.74c0,1.01-0.34,1.63-1.63,1.63h-5.12c-1.41,0-1.8-0.79-2.53-1.91l-11.92-19.29v19.57
				c0,1.29-0.62,1.63-1.63,1.63h-5.57c-1.01,0-1.63-0.34-1.63-1.63V51.69c0-1.01,0.34-1.63,1.63-1.63h5.29
				c1.41,0,1.8,0.79,2.53,1.91l11.92,19.23V51.69c0-1.29,0.62-1.63,1.63-1.63h5.4C204.81,50.06,205.43,50.4,205.43,51.69z"/>
			<path class="st0" d="M243.78,51.69v33.74c0,1.01-0.34,1.63-1.63,1.63h-5.12c-1.41,0-1.8-0.79-2.53-1.91l-11.92-19.29v19.57
				c0,1.29-0.62,1.63-1.63,1.63h-5.57c-1.01,0-1.63-0.34-1.63-1.63V51.69c0-1.01,0.34-1.63,1.63-1.63h5.29
				c1.41,0,1.8,0.79,2.53,1.91l11.92,19.23V51.69c0-1.29,0.62-1.63,1.63-1.63h5.4C243.16,50.06,243.78,50.4,243.78,51.69z"/>
			<path class="st0" d="M280.55,80.82v4.61c0,1.01-0.34,1.63-1.63,1.63h-25.19c-1.29,0-1.63-0.62-1.63-1.63V51.69
				c0-1.01,0.34-1.63,1.63-1.63h24.24c1.29,0,1.63,0.62,1.63,1.63v4.67c0,1.01-0.34,1.63-1.63,1.63h-16.98v6.13h15.07
				c1.29,0,1.63,0.62,1.63,1.63v4.39c0,1.01-0.34,1.63-1.63,1.63h-15.07v7.42h17.94C280.21,79.19,280.55,79.81,280.55,80.82z"/>
			<path class="st0" d="M316.81,87.06h-6.64c-1.35,0-2.02-0.51-2.81-1.69l-6.07-9.05c-0.51-0.68-0.62-1.29-0.62-2.87v-4.5
				c0-1.01,0.34-1.63,1.63-1.63h1.12c2.76,0,5.34-1.91,5.34-4.55c0-2.92-2.25-4.78-5.17-4.78h-7.48v27.44
				c0,1.29-0.62,1.63-1.63,1.63h-5.57c-1.01,0-1.57-0.34-1.57-1.63V51.74c0-1.01,0.28-1.63,1.57-1.63h14.17
				c6.13,0,8.83,1.24,11.19,3.6c2.08,2.02,3.26,5.23,3.26,8.83c0,5.9-4.33,10.01-7.82,11.19l7.93,11.53
				C318.17,86.05,317.88,87.06,316.81,87.06z"/>
		</g>
	</g>
</g>
</svg>
