<?xml version="1.0" standalone="no"?>
<!DOCTYPE svg PUBLIC "-//W3C//DTD SVG 20010904//EN"
 "http://www.w3.org/TR/2001/REC-SVG-20010904/DTD/svg10.dtd">
<svg version="1.0" xmlns="http://www.w3.org/2000/svg"
 width="926.000000pt" height="253.000000pt" viewBox="0 0 926.000000 253.000000"
 preserveAspectRatio="xMidYMid meet">

<g transform="translate(0.000000,253.000000) scale(0.100000,-0.100000)"
fill="#000000" stroke="none">
<path d="M590 2047 c0 -7 20 -358 45 -780 25 -422 45 -774 45 -782 0 -13 42
-15 298 -15 l297 1 365 784 c200 431 366 788 368 794 3 8 -83 11 -277 11 -155
0 -281 -3 -281 -6 0 -3 13 -25 30 -49 25 -37 39 -46 87 -60 101 -30 143 -77
143 -162 0 -45 10 -26 -249 -448 -220 -357 -209 -340 -215 -334 -2 2 -20 216
-40 474 -20 259 -39 496 -43 528 l-6 57 -283 0 c-227 0 -284 -3 -284 -13z"/>
<path d="M2007 1273 c-92 -434 -167 -791 -167 -795 0 -5 236 -8 524 -8 l525 0
11 57 c7 32 15 75 20 96 l8 37 -254 0 c-140 0 -254 3 -254 8 0 16 109 513 115
522 4 6 88 10 215 10 l210 0 6 27 c3 16 10 44 14 63 4 19 11 47 14 63 l6 27
-208 0 c-115 0 -211 2 -214 5 -2 3 19 112 47 242 l52 238 256 3 256 2 11 58
c7 31 15 74 20 95 l8 37 -527 0 -527 0 -167 -787z"/>
<path d="M3427 2039 c-3 -13 -76 -355 -162 -759 -86 -404 -160 -752 -164 -772
l-9 -38 272 0 271 0 69 327 c38 181 73 336 79 347 6 13 12 15 19 8 6 -6 59
-161 117 -344 l107 -333 278 -3 279 -2 -66 60 c-76 70 -103 120 -140 260 -25
91 -83 419 -75 424 1 1 37 19 79 39 104 50 170 111 213 197 45 90 60 165 53
268 -8 142 -64 224 -192 283 -97 45 -159 51 -606 56 l-416 5 -6 -23z m666
-160 c50 -14 77 -67 77 -154 0 -173 -76 -342 -175 -386 -49 -23 -175 -27 -175
-6 0 10 72 343 115 535 5 20 11 22 63 22 31 0 74 -5 95 -11z"/>
<path d="M4895 2038 c-15 -65 -33 -163 -31 -166 2 -1 26 3 54 10 40 9 105 9
284 0 128 -7 244 -12 257 -12 16 0 21 -4 18 -15 -4 -8 -186 -271 -407 -584
l-400 -570 -24 -116 -23 -115 648 0 c357 0 649 2 649 4 0 2 7 40 15 83 20 106
21 104 -27 79 -37 -18 -60 -21 -158 -20 -108 0 -395 29 -432 43 -13 5 63 121
387 593 l404 588 11 82 c5 45 10 95 10 110 l0 28 -615 0 -615 0 -5 -22z"/>
<path d="M6397 2053 c-5 -8 -337 -1563 -337 -1576 0 -4 236 -7 524 -7 491 0
525 1 530 18 2 9 10 44 16 77 6 33 14 68 16 78 5 16 -12 17 -250 17 -141 0
-256 2 -256 5 0 18 113 522 119 527 3 4 101 9 216 10 l209 3 17 80 c10 44 18
83 18 88 1 4 -93 7 -209 7 -182 0 -210 2 -210 15 0 15 85 419 96 458 5 16 26
17 259 17 l254 0 16 78 c9 42 19 85 22 95 4 16 -25 17 -521 17 -289 0 -527 -3
-529 -7z"/>
<path d="M7521 1969 c-12 -50 -21 -92 -21 -95 0 -2 88 -4 195 -4 149 0 195 -3
195 -12 0 -7 -65 -319 -145 -693 -80 -374 -145 -683 -145 -687 0 -4 121 -8
269 -8 l269 0 6 27 c4 16 69 320 145 676 115 544 141 651 160 670 20 21 31 22
206 25 181 3 185 4 190 25 27 118 35 153 35 160 0 4 -301 7 -669 7 l-669 0
-21 -91z"/>
</g>
</svg>
