<svg xmlns="http://www.w3.org/2000/svg" width="185.956" height="64.596" viewBox="0 0 185.956 64.596"><g transform="translate(0 -0.007)"><g transform="translate(0 0.27)"><path d="M24.375,39.23a8.475,8.475,0,0,1-3.535,7q-3.535,2.737-9.648,2.737a22.957,22.957,0,0,1-6.351-.826A27.771,27.771,0,0,1,0,46.342V40.451H.28a20.905,20.905,0,0,0,5.532,2.974,17.14,17.14,0,0,0,5.833,1.1,11.03,11.03,0,0,0,5.417-1.114,3.772,3.772,0,0,0,1.954-3.52A3.556,3.556,0,0,0,17.953,37.1,9.6,9.6,0,0,0,13.88,35.48c-.747-.165-1.717-.359-2.917-.589s-2.292-.467-3.283-.726q-4.106-1.088-5.819-3.2a7.954,7.954,0,0,1-1.717-5.18,8.441,8.441,0,0,1,.8-3.628,8.854,8.854,0,0,1,2.414-3.046,11.511,11.511,0,0,1,3.98-2.076,17.842,17.842,0,0,1,5.4-.769,24.465,24.465,0,0,1,5.654.682,21.484,21.484,0,0,1,4.763,1.66v5.611h-.28a18.859,18.859,0,0,0-4.885-2.5,16.731,16.731,0,0,0-5.639-1.02,10,10,0,0,0-4.856,1.106A3.544,3.544,0,0,0,5.51,25.092a3.521,3.521,0,0,0,1.2,2.9,9.346,9.346,0,0,0,3.8,1.595q1.455.334,3.254.668c1.2.223,2.2.431,3,.618a11.15,11.15,0,0,1,5.639,2.874,7.581,7.581,0,0,1,1.983,5.474Z" transform="translate(0 -4.776)" fill="#fff"/><path d="M54.857,44.724a28.473,28.473,0,0,1-3.226.639,22.413,22.413,0,0,1-3.111.251q-4.774,0-7.256-2.572T38.779,34.81V18.229H35.23V13.818h3.549V4.86H44.03v8.958H54.864v4.411H44.03v14.21c0,1.638.036,2.917.115,3.836a6.236,6.236,0,0,0,.783,2.579,3.737,3.737,0,0,0,1.688,1.631A7.933,7.933,0,0,0,49.9,41a10.005,10.005,0,0,0,2.68-.381A19.487,19.487,0,0,0,54.591,40h.28v4.72Z" transform="translate(-9.921 -1.563)" fill="#fff"/><path d="M85.772,23.053h-.28a18.088,18.088,0,0,0-2.277-.4,22.856,22.856,0,0,0-2.608-.122,10.8,10.8,0,0,0-4.691,1.078,21.6,21.6,0,0,0-4.354,2.78V48.527H66.31v-31.2h5.252v4.6a25.966,25.966,0,0,1,5.517-3.563A11.944,11.944,0,0,1,81.95,17.32a18.494,18.494,0,0,1,1.983.072c.409.05,1.02.136,1.839.266v5.388Z" transform="translate(-18.673 -5.071)" fill="#fff"/><path d="M118.242,48.223h-5.223V44.9c-.467.316-1.092.762-1.882,1.329a13.034,13.034,0,0,1-2.306,1.351,15.883,15.883,0,0,1-3.017,1.078,16.385,16.385,0,0,1-3.994.431A9.957,9.957,0,0,1,94.671,46.3a9.4,9.4,0,0,1-2.931-7.119,9.839,9.839,0,0,1,1.523-5.74A10.215,10.215,0,0,1,97.6,29.99a23.236,23.236,0,0,1,6.839-1.7c2.665-.295,5.517-.524,8.571-.668v-.812a6.252,6.252,0,0,0-.625-2.96,4.6,4.6,0,0,0-1.8-1.846,7.31,7.31,0,0,0-2.68-.862,22.832,22.832,0,0,0-3.269-.223,21.934,21.934,0,0,0-4.6.546,36.291,36.291,0,0,0-5.252,1.58H94.5V17.712q1.53-.42,4.44-.92a33.232,33.232,0,0,1,5.726-.5,26.435,26.435,0,0,1,5.74.546,11.284,11.284,0,0,1,4.231,1.853,8.256,8.256,0,0,1,2.68,3.319,12.217,12.217,0,0,1,.92,5.058V48.23Zm-5.223-7.68V31.858q-2.4.14-5.654.417a28.728,28.728,0,0,0-5.151.812,8.435,8.435,0,0,0-3.657,2,4.974,4.974,0,0,0-1.394,3.729,4.953,4.953,0,0,0,1.624,4.037A7.561,7.561,0,0,0,103.73,44.2a11.7,11.7,0,0,0,5.05-1.078,23.109,23.109,0,0,0,4.246-2.586Z" transform="translate(-25.834 -4.781)" fill="#fff"/><path d="M158.408,48.178h-5.244V30.419a30.981,30.981,0,0,0-.251-4.037,7.339,7.339,0,0,0-.92-2.945,4.239,4.239,0,0,0-2.012-1.746,8.62,8.62,0,0,0-3.405-.575,11,11,0,0,0-4.5,1.063,23.093,23.093,0,0,0-4.5,2.708V48.178H132.33V16.992h5.252v3.463a21.378,21.378,0,0,1,5.079-3.183,13.4,13.4,0,0,1,5.388-1.142q5.054,0,7.708,3.046t2.651,8.765V48.185Z" transform="translate(-37.264 -4.736)" fill="#fff"/><path d="M198.12,43.712h-5.252V40.443a19.11,19.11,0,0,1-4.72,3.046,13,13,0,0,1-5.331,1.085,10.562,10.562,0,0,1-8.865-4.3q-3.276-4.3-3.283-11.925A20.659,20.659,0,0,1,171.8,21.29a16.3,16.3,0,0,1,3.06-5.273,12.924,12.924,0,0,1,9.663-4.354,16.6,16.6,0,0,1,4.354.517,20.417,20.417,0,0,1,3.994,1.6V.27h5.251V43.712Zm-5.252-7.68v-17.9a19.877,19.877,0,0,0-3.8-1.315,17.107,17.107,0,0,0-3.657-.359,8.285,8.285,0,0,0-6.868,3.075q-2.457,3.071-2.457,8.714c0,3.764.632,6.523,1.9,8.448s3.3,2.888,6.085,2.888a11.354,11.354,0,0,0,4.526-.991,19.042,19.042,0,0,0,4.274-2.558Z" transform="translate(-48.06 -0.27)" fill="#fff"/><path d="M236.755,39.23a8.474,8.474,0,0,1-3.535,7q-3.535,2.737-9.648,2.737a22.957,22.957,0,0,1-6.351-.826,27.771,27.771,0,0,1-4.842-1.8V40.451h.28a20.974,20.974,0,0,0,5.525,2.974,17.14,17.14,0,0,0,5.833,1.1,11.03,11.03,0,0,0,5.417-1.114,3.772,3.772,0,0,0,1.954-3.52,3.556,3.556,0,0,0-1.063-2.795,9.559,9.559,0,0,0-4.073-1.616c-.747-.165-1.717-.359-2.917-.589s-2.292-.467-3.283-.726q-4.106-1.088-5.819-3.2a7.954,7.954,0,0,1-1.717-5.18,8.441,8.441,0,0,1,.8-3.628,8.855,8.855,0,0,1,2.414-3.046,11.511,11.511,0,0,1,3.98-2.076,17.842,17.842,0,0,1,5.4-.769,24.465,24.465,0,0,1,5.654.682,21.484,21.484,0,0,1,4.763,1.66v5.611h-.28a18.976,18.976,0,0,0-4.885-2.5,16.763,16.763,0,0,0-5.639-1.02,10.019,10.019,0,0,0-4.856,1.106,3.544,3.544,0,0,0-1.983,3.283,3.521,3.521,0,0,0,1.2,2.9,9.346,9.346,0,0,0,3.8,1.595q1.455.334,3.254.668c1.2.223,2.2.431,3,.618a11.151,11.151,0,0,1,5.639,2.874,7.581,7.581,0,0,1,1.983,5.474Z" transform="translate(-59.806 -4.776)" fill="#fff"/><g transform="translate(32.285 48.794)"><g transform="translate(5.058)"><path d="M56.276,68.19,53.453,80.41H51.98L54.8,68.19Z" transform="translate(-51.98 -68.19)" fill="#fff"/><path d="M60.139,71.813l-2.026,8.772H56.64l2.026-8.772Zm.8-3-.352,1.53H58.917l.352-1.53Z" transform="translate(-53.292 -68.365)" fill="#fff"/><path d="M70.425,72.891l-1.782,7.795a6.034,6.034,0,0,1-1.7,3.262,4.823,4.823,0,0,1-3.283,1.035,9.6,9.6,0,0,1-1.358-.1,8.37,8.37,0,0,1-1.257-.273l.338-1.466h.079a6.868,6.868,0,0,0,1.185.374,5.866,5.866,0,0,0,1.408.18,3.7,3.7,0,0,0,1.272-.194,2.455,2.455,0,0,0,.862-.524,2.648,2.648,0,0,0,.539-.769,4.586,4.586,0,0,0,.323-.977l.18-.769a9.31,9.31,0,0,1-1.394.8,3.949,3.949,0,0,1-1.545.266,2.582,2.582,0,0,1-2-.783,3.137,3.137,0,0,1-.718-2.205,6.627,6.627,0,0,1,.374-2.213,6.337,6.337,0,0,1,1.042-1.9,5.034,5.034,0,0,1,1.566-1.293,4.133,4.133,0,0,1,1.961-.489,4.8,4.8,0,0,1,1.343.172,4.275,4.275,0,0,1,1.035.445l.187-.374h1.372Zm-1.832,1.58a5.223,5.223,0,0,0-1.035-.4,4.175,4.175,0,0,0-1.07-.144,2.9,2.9,0,0,0-1.408.345,3.5,3.5,0,0,0-1.092.97,4.538,4.538,0,0,0-.675,1.4,5.866,5.866,0,0,0-.237,1.638,2.162,2.162,0,0,0,.424,1.43,1.685,1.685,0,0,0,1.365.51,3.512,3.512,0,0,0,1.322-.273,8.865,8.865,0,0,0,1.315-.69l1.092-4.785Z" transform="translate(-54.534 -69.443)" fill="#fff"/><path d="M81.7,73.638c0,.122-.014.295-.036.51a3.684,3.684,0,0,1-.1.568l-1.322,5.7H78.769l1.149-4.993c.065-.28.108-.517.144-.726a3.584,3.584,0,0,0,.05-.618,1.344,1.344,0,0,0-.33-.991,1.627,1.627,0,0,0-1.178-.33,3.135,3.135,0,0,0-1.315.33,10.151,10.151,0,0,0-1.408.79L74.373,80.42H72.9L75.716,68.2h1.473l-1.02,4.425a8.7,8.7,0,0,1,1.573-.905,3.822,3.822,0,0,1,1.516-.316,2.61,2.61,0,0,1,1.789.575,2.144,2.144,0,0,1,.639,1.667Z" transform="translate(-57.871 -68.193)" fill="#fff"/><path d="M92.4,72,92.134,73.2H89.088l-.941,4.052c-.05.208-.1.438-.144.7a4.15,4.15,0,0,0-.065.632,1.139,1.139,0,0,0,.287.855,1.566,1.566,0,0,0,1.078.28,3.27,3.27,0,0,0,.762-.108,5.265,5.265,0,0,0,.6-.172h.079L90.475,80.7c-.295.072-.6.129-.941.18a5.9,5.9,0,0,1-.884.072,2.609,2.609,0,0,1-1.674-.474,1.813,1.813,0,0,1-.6-1.5,4.042,4.042,0,0,1,.036-.5c.022-.165.057-.352.1-.56L87.608,73.2h-1l.266-1.193h1.006l.582-2.522h1.48l-.589,2.522h3.039Z" transform="translate(-61.667 -68.556)" fill="#fff"/><path d="M96.9,71.813l-2.026,8.772H93.4l2.026-8.772Zm.8-3-.352,1.53H95.677l.352-1.53Z" transform="translate(-63.644 -68.365)" fill="#fff"/><path d="M106.826,74.894c0,.122-.014.295-.036.51a3.685,3.685,0,0,1-.1.568l-1.315,5.7H103.9l1.149-4.993c.065-.28.115-.517.144-.726a3.583,3.583,0,0,0,.05-.618,1.344,1.344,0,0,0-.33-.991,1.627,1.627,0,0,0-1.178-.33,3.135,3.135,0,0,0-1.315.33,9.683,9.683,0,0,0-1.4.79l-1.509,6.545H98.04l2.026-8.772h1.473l-.223.977a8.7,8.7,0,0,1,1.573-.905,3.814,3.814,0,0,1,1.509-.316,2.61,2.61,0,0,1,1.789.575,2.144,2.144,0,0,1,.639,1.667Z" transform="translate(-64.95 -69.449)" fill="#fff"/><path d="M119.532,72.891l-1.789,7.795a6.034,6.034,0,0,1-1.7,3.262,4.823,4.823,0,0,1-3.283,1.035,9.675,9.675,0,0,1-1.358-.1,8.371,8.371,0,0,1-1.257-.273l.338-1.466h.079a6.868,6.868,0,0,0,1.185.374,5.911,5.911,0,0,0,1.408.18,3.7,3.7,0,0,0,1.272-.194,2.455,2.455,0,0,0,.862-.524,2.648,2.648,0,0,0,.539-.769,4.216,4.216,0,0,0,.323-.977l.18-.769a9.31,9.31,0,0,1-1.394.8,3.949,3.949,0,0,1-1.545.266,2.556,2.556,0,0,1-2-.783,3.139,3.139,0,0,1-.726-2.205,6.627,6.627,0,0,1,.374-2.213,6.337,6.337,0,0,1,1.042-1.9,5.034,5.034,0,0,1,1.566-1.293,4.133,4.133,0,0,1,1.961-.489,4.852,4.852,0,0,1,1.351.172,4.275,4.275,0,0,1,1.035.445l.18-.374h1.372Zm-1.832,1.58a5.223,5.223,0,0,0-1.034-.4,4.188,4.188,0,0,0-1.078-.144,2.851,2.851,0,0,0-1.4.345,3.5,3.5,0,0,0-1.092.97,4.538,4.538,0,0,0-.675,1.4,5.866,5.866,0,0,0-.237,1.638,2.162,2.162,0,0,0,.424,1.43,1.679,1.679,0,0,0,1.358.51,3.512,3.512,0,0,0,1.322-.273,8.866,8.866,0,0,0,1.315-.69l1.092-4.785Z" transform="translate(-68.361 -69.443)" fill="#fff"/><path d="M138.906,68.19l-2.823,12.22H134.61l.208-.92a9.044,9.044,0,0,1-1.6.92,3.63,3.63,0,0,1-1.322.237,2.555,2.555,0,0,1-1.968-.783,3.266,3.266,0,0,1-.726-2.285,7.143,7.143,0,0,1,.4-2.392,6.529,6.529,0,0,1,1.07-1.976,4.992,4.992,0,0,1,1.58-1.329,3.962,3.962,0,0,1,1.933-.489,5.135,5.135,0,0,1,1.286.151,4.355,4.355,0,0,1,1.1.445l.876-3.8h1.473Zm-2.637,5.029a5.028,5.028,0,0,0-1.035-.4,4.342,4.342,0,0,0-1.078-.129,2.708,2.708,0,0,0-1.458.4,3.467,3.467,0,0,0-1.092,1.078,4.812,4.812,0,0,0-.639,1.494,6.7,6.7,0,0,0-.223,1.688,2.241,2.241,0,0,0,.417,1.466,1.622,1.622,0,0,0,1.336.51,3.033,3.033,0,0,0,1.343-.33,9.671,9.671,0,0,0,1.264-.718l1.164-5.036Z" transform="translate(-73.725 -68.19)" fill="#fff"/><path d="M144.5,71.813l-2.026,8.772H141l2.026-8.772Zm.8-3-.352,1.53h-1.674l.352-1.53Z" transform="translate(-77.048 -68.365)" fill="#fff"/><path d="M155.872,72.99,150.3,81.762h-1.466l-1.5-8.772h1.494L149.938,80l4.318-7.012h1.616Z" transform="translate(-78.83 -69.542)" fill="#fff"/><path d="M161.259,71.813l-2.026,8.772H157.76l2.026-8.772Zm.8-3-.352,1.53h-1.674l.359-1.53h1.674Z" transform="translate(-81.767 -68.365)" fill="#fff"/><path d="M165.016,81.88a5.711,5.711,0,0,1-1.753-.244,7.623,7.623,0,0,1-1.293-.524l.33-1.58h.079a4.656,4.656,0,0,0,.431.33,3.94,3.94,0,0,0,.668.381,4.571,4.571,0,0,0,.841.309,3.851,3.851,0,0,0,1.02.129,3.133,3.133,0,0,0,1.731-.409,1.347,1.347,0,0,0,.625-1.2.729.729,0,0,0-.323-.639,2.7,2.7,0,0,0-.927-.366c-.2-.043-.445-.1-.733-.158s-.575-.129-.869-.2a2.84,2.84,0,0,1-1.358-.747,1.729,1.729,0,0,1-.438-1.2,2.525,2.525,0,0,1,.266-1.149,3.249,3.249,0,0,1,.79-.984,4.069,4.069,0,0,1,1.279-.69,5.426,5.426,0,0,1,1.724-.266,6.448,6.448,0,0,1,1.566.194,4.907,4.907,0,0,1,1.279.489l-.316,1.509h-.079c-.086-.065-.208-.158-.381-.273a5.149,5.149,0,0,0-.647-.352,4.434,4.434,0,0,0-.79-.259,4.02,4.02,0,0,0-.941-.108,2.825,2.825,0,0,0-1.595.409,1.28,1.28,0,0,0-.611,1.128.831.831,0,0,0,.3.654,2.037,2.037,0,0,0,.912.409c.259.065.524.122.8.18s.553.115.812.18a2.814,2.814,0,0,1,1.372.7,1.677,1.677,0,0,1,.46,1.2,2.619,2.619,0,0,1-.287,1.185,2.984,2.984,0,0,1-.826,1.006,4,4,0,0,1-1.351.7,5.963,5.963,0,0,1-1.782.251Z" transform="translate(-82.953 -69.452)" fill="#fff"/><path d="M176.1,71.813l-2.026,8.772H172.6l2.026-8.772Zm.8-3-.359,1.53H174.87l.359-1.53Z" transform="translate(-85.946 -68.365)" fill="#fff"/><path d="M185.952,75.985a7.242,7.242,0,0,1-.359,2.263,5.855,5.855,0,0,1-1.02,1.882,5.039,5.039,0,0,1-1.58,1.3,4.485,4.485,0,0,1-2.091.467,3.245,3.245,0,0,1-2.435-.891,3.376,3.376,0,0,1-.876-2.464,7.12,7.12,0,0,1,.359-2.249,6.164,6.164,0,0,1,1.027-1.9,4.893,4.893,0,0,1,1.6-1.279,4.455,4.455,0,0,1,2.069-.481,3.05,3.05,0,0,1,3.3,3.341ZM183.546,79.3a4.774,4.774,0,0,0,.647-1.451,6.53,6.53,0,0,0,.223-1.746,2.367,2.367,0,0,0-.524-1.667,1.923,1.923,0,0,0-1.487-.568,2.572,2.572,0,0,0-1.365.366,3.457,3.457,0,0,0-1.049,1,4.882,4.882,0,0,0-.654,1.451,6.579,6.579,0,0,0-.23,1.731,2.391,2.391,0,0,0,.524,1.667,1.911,1.911,0,0,0,1.494.582,2.671,2.671,0,0,0,1.365-.359,3.228,3.228,0,0,0,1.042-1.006Z" transform="translate(-87.351 -69.44)" fill="#fff"/><path d="M197.929,74.894c0,.122-.014.295-.036.51a4.926,4.926,0,0,1-.093.568l-1.315,5.7h-1.473l1.149-4.993c.065-.28.108-.517.144-.726a3.581,3.581,0,0,0,.05-.618,1.373,1.373,0,0,0-.323-.991,1.627,1.627,0,0,0-1.178-.33,3.109,3.109,0,0,0-1.315.33,10.151,10.151,0,0,0-1.408.79l-1.509,6.545H189.15l2.026-8.772h1.473l-.223.977A8.7,8.7,0,0,1,194,72.976a3.814,3.814,0,0,1,1.509-.316,2.6,2.6,0,0,1,1.789.575,2.144,2.144,0,0,1,.639,1.667Z" transform="translate(-90.607 -69.449)" fill="#fff"/></g><path d="M49.186,78.468H44.94l.287-1.228h4.246Z" transform="translate(-44.94 -70.738)" fill="#fff"/></g></g><g transform="translate(177.661 0.277)"><path d="M251.18,3.45h1.056a2.007,2.007,0,0,1,.726.108.908.908,0,0,1,.431.33.864.864,0,0,1-.029,1.034,1.11,1.11,0,0,1-.568.345l.841,1.631h-.359l-.812-1.566h-.948V6.9h-.338Zm.338.295V5.03h.733a1.681,1.681,0,0,0,.532-.086.567.567,0,0,0,.295-.216.58.58,0,0,0,.1-.352.56.56,0,0,0-.2-.453.916.916,0,0,0-.6-.18h-.862Z" transform="translate(-248.393 -1.173)" fill="#1d1d1b" stroke="#fff" stroke-miterlimit="10" stroke-width="0.54"/><path d="M255.325,4.289A4.012,4.012,0,1,1,251.316.28a4.016,4.016,0,0,1,4.009,4.009Z" transform="translate(-247.3 -0.28)" fill="none" stroke="#fff" stroke-miterlimit="10" stroke-width="0.54"/></g></g></svg>